<svg width="108" height="108" viewBox="0 0 108 108" fill="none" xmlns="http://www.w3.org/2000/svg">
<ellipse cx="53.6798" cy="53.5972" rx="53.6798" ry="53.5972" fill="#E0B6BF"/>
<mask id="mask0_1427_121" style="mask-type:alpha" maskUnits="userSpaceOnUse" x="22" y="22" width="63" height="63">
<rect x="22" y="22" width="63" height="62.9031" fill="#D9D9D9"/>
</mask>
<g mask="url(#mask0_1427_121)">
<path d="M64.085 52.1063C64.8153 52.1063 65.4274 51.8603 65.9215 51.3682C66.4155 50.8761 66.6625 50.2664 66.6625 49.5389C66.6625 48.8115 66.4155 48.2018 65.9215 47.7097C65.4274 47.2176 64.8153 46.9716 64.085 46.9716C63.3547 46.9716 62.7426 47.2176 62.2485 47.7097C61.7545 48.2018 61.5075 48.8115 61.5075 49.5389C61.5075 50.2664 61.7545 50.8761 62.2485 51.3682C62.7426 51.8603 63.3547 52.1063 64.085 52.1063ZM43.465 46.1157H56.3525V41.8368H43.465V46.1157ZM34.4437 77.78C32.9832 72.902 31.5441 68.0347 30.1264 63.1781C28.7088 58.3215 28 53.3472 28 48.2553C28 44.3186 29.3747 40.9811 32.124 38.2425C34.8733 35.504 38.2241 34.1347 42.1763 34.1347H55.0638C56.3095 32.5087 57.8238 31.2464 59.6066 30.3479C61.3894 29.4493 63.3118 29 65.3738 29C66.4477 29 67.3606 29.3744 68.1123 30.1232C68.8641 30.872 69.24 31.7813 69.24 32.8511C69.24 33.065 69.1326 33.5571 68.9178 34.3273C68.746 34.798 68.5849 35.2794 68.4345 35.7714C68.2842 36.2635 68.166 36.7663 68.0801 37.2798L73.9439 43.1205H79.55V61.0279L72.2686 63.4027L67.9512 77.78H53.775V72.6453H48.62V77.78H34.4437Z" fill="white"/>
</g>
</svg>
