<svg width="108" height="108" viewBox="0 0 108 108" fill="none" xmlns="http://www.w3.org/2000/svg">
<ellipse cx="53.6798" cy="53.5972" rx="53.6798" ry="53.5972" fill="#E0B6BF"/>
<mask id="mask0_1427_113" style="mask-type:alpha" maskUnits="userSpaceOnUse" x="22" y="22" width="63" height="63">
<rect x="22" y="22" width="63" height="62.9031" fill="#D9D9D9"/>
</mask>
<g mask="url(#mask0_1427_113)">
<path d="M54 79.3C47.8896 77.7746 42.862 74.2552 38.9172 68.7419C34.9724 63.2286 33 57.1597 33 50.535V34.845L54 27L75 34.845V50.535C75 53.3098 74.6172 56.0229 73.8516 58.6742C73.0859 61.3255 71.9958 63.857 70.5813 66.2686L62.4437 58.3364C62.9833 57.5665 63.3807 56.7275 63.6359 55.8195C63.8911 54.9115 64.0187 53.9926 64.0187 53.0629C64.0187 50.2735 63.0416 47.9055 61.0875 45.9588C59.1333 44.012 56.7708 43.0386 54 43.0386C51.2292 43.0386 48.8667 44.012 46.9125 45.9588C44.9584 47.9055 43.9813 50.2735 43.9813 53.0629C43.9813 55.8231 44.9584 58.1693 46.9125 60.1015C48.8667 62.0337 51.2292 62.9998 54 62.9998C54.9479 62.9998 55.8776 62.8581 56.7891 62.5749C57.7005 62.2916 58.5646 61.9102 59.3812 61.4308L68.0656 69.886C66.1406 72.254 64.0224 74.2371 61.7109 75.8351C59.3995 77.4332 56.8292 78.5882 54 79.3ZM54 58.6415C52.4396 58.6415 51.1088 58.1003 50.0078 57.018C48.9068 55.9357 48.3562 54.6173 48.3562 53.0629C48.3562 51.4793 48.9068 50.1391 50.0078 49.0423C51.1088 47.9454 52.4396 47.397 54 47.397C55.5604 47.397 56.8912 47.9454 57.9922 49.0423C59.0932 50.1391 59.6438 51.4793 59.6438 53.0629C59.6438 54.6173 59.0932 55.9357 57.9922 57.018C56.8912 58.1003 55.5604 58.6415 54 58.6415Z" fill="white"/>
</g>
</svg>
