<svg width="108" height="108" viewBox="0 0 108 108" fill="none" xmlns="http://www.w3.org/2000/svg">
<ellipse cx="53.6798" cy="53.5972" rx="53.6798" ry="53.5972" fill="#E0B6BF"/>
<path d="M18 52.0102L26.6359 44.345L15.6797 40.6988L18 52.0102ZM21.7636 43.8589C29.4536 25.5753 44.3281 18.6681 58.0739 20.2086C71.869 21.7547 84.6127 31.8087 88.0222 47.7197L89.9778 47.3007C86.3784 30.5036 72.9 19.8577 58.2966 18.2211C43.644 16.5789 27.9439 24.0062 19.9201 43.0835L21.7636 43.8589Z" fill="white"/>
<path d="M91 57L82.3641 64.6652L93.3203 68.3115L91 57ZM87.2364 65.1514C79.5464 83.435 64.6719 90.3422 50.9261 88.8016C37.131 87.2556 24.3873 77.2016 20.9778 61.2905L19.0222 61.7096C22.6216 78.5066 36.1 89.1525 50.7034 90.7892C65.356 92.4313 81.0561 85.004 89.0799 65.9268L87.2364 65.1514Z" fill="white"/>
<mask id="path-4-outside-1_1388_395" maskUnits="userSpaceOnUse" x="28" y="35" width="52" height="39" fill="black">
<rect fill="white" x="28" y="35" width="52" height="39"/>
<path d="M28.584 51V40H30.938V51H28.584ZM28.474 38.218V35.82H31.048V38.218H28.474ZM39.3195 51H34.1935V35.82H39.3195C42.7295 35.82 45.0175 37.646 45.0175 42.508V44.312C45.0175 49.174 42.7295 51 39.3195 51ZM39.3195 48.8C41.4975 48.8 42.4655 47.436 42.4655 44.312V42.508C42.4655 39.384 41.4975 38.042 39.3195 38.042H36.7455V48.8H39.3195ZM53.8661 48.096L55.6261 49.328C54.8561 50.67 53.6241 51.198 51.6881 51.198C48.5421 51.198 46.8701 49.152 46.8701 46.226V44.73C46.8701 41.496 48.4541 39.802 51.3361 39.802C54.3501 39.802 55.7801 41.606 55.7801 44.862V46.072H49.2021V46.116C49.2021 47.832 49.8621 49.174 51.6001 49.174C52.8981 49.174 53.4261 48.778 53.8661 48.096ZM51.3361 41.848C49.9721 41.848 49.3341 42.772 49.2241 44.268H53.4261C53.3381 42.662 52.6781 41.848 51.3361 41.848ZM69.0528 40.528H66.5888C66.1928 38.68 65.2028 37.844 63.5308 37.844C61.5068 37.844 60.4068 39.164 60.4068 42.442V44.378C60.4068 47.612 61.5068 48.976 63.5308 48.976C65.2688 48.976 66.1928 48.14 66.5888 46.292H69.0308C68.5248 49.702 66.5448 51.198 63.5308 51.198C60.1428 51.198 57.8548 49.152 57.8548 44.378V42.442C57.8548 37.668 60.1428 35.622 63.5308 35.622C66.5448 35.622 68.5468 37.228 69.0528 40.528ZM79.8529 44.796V46.182C79.8529 49.108 78.4229 51.198 75.1889 51.198C72.1089 51.198 70.5029 49.218 70.5029 46.182V44.796C70.5029 41.562 72.2189 39.802 75.1889 39.802C78.1589 39.802 79.8529 41.562 79.8529 44.796ZM75.1889 49.174C76.8609 49.174 77.5209 47.832 77.5209 46.116V44.84C77.5209 42.926 76.7509 41.848 75.1889 41.848C73.6049 41.848 72.8349 42.948 72.8349 44.84V46.116C72.8349 47.832 73.4069 49.174 75.1889 49.174ZM42.62 57.82H45.084V73H42.818L36.636 62.682V73H34.172V57.82H36.372L42.62 68.27V57.82ZM51.2096 57.82V73H48.6576V57.82H51.2096ZM64.588 60.108L62.652 61.494C61.904 60.46 61.09 59.844 59.374 59.844C57.812 59.844 56.888 60.548 56.888 61.824C56.888 63.276 58.032 63.848 60.144 64.31C63.202 64.97 64.786 66.114 64.786 68.842C64.786 71.108 63.268 73.198 59.616 73.198C57.02 73.198 55.194 72.406 53.94 70.712L55.942 69.326C56.844 70.404 57.746 70.976 59.484 70.976C61.574 70.976 62.234 70.052 62.234 68.952C62.234 67.742 61.552 66.994 58.912 66.422C55.986 65.806 54.336 64.398 54.336 61.824C54.336 59.536 55.832 57.622 59.396 57.622C61.816 57.622 63.51 58.436 64.588 60.108ZM68.3579 73H65.6299L70.9099 57.82H73.3299L78.6099 73H75.9039L74.8699 69.854H69.3919L68.3579 73ZM72.1199 61.516L70.0959 67.654H74.1439L72.1199 61.516Z"/>
</mask>
<path d="M28.584 51V40H30.938V51H28.584ZM28.474 38.218V35.82H31.048V38.218H28.474ZM39.3195 51H34.1935V35.82H39.3195C42.7295 35.82 45.0175 37.646 45.0175 42.508V44.312C45.0175 49.174 42.7295 51 39.3195 51ZM39.3195 48.8C41.4975 48.8 42.4655 47.436 42.4655 44.312V42.508C42.4655 39.384 41.4975 38.042 39.3195 38.042H36.7455V48.8H39.3195ZM53.8661 48.096L55.6261 49.328C54.8561 50.67 53.6241 51.198 51.6881 51.198C48.5421 51.198 46.8701 49.152 46.8701 46.226V44.73C46.8701 41.496 48.4541 39.802 51.3361 39.802C54.3501 39.802 55.7801 41.606 55.7801 44.862V46.072H49.2021V46.116C49.2021 47.832 49.8621 49.174 51.6001 49.174C52.8981 49.174 53.4261 48.778 53.8661 48.096ZM51.3361 41.848C49.9721 41.848 49.3341 42.772 49.2241 44.268H53.4261C53.3381 42.662 52.6781 41.848 51.3361 41.848ZM69.0528 40.528H66.5888C66.1928 38.68 65.2028 37.844 63.5308 37.844C61.5068 37.844 60.4068 39.164 60.4068 42.442V44.378C60.4068 47.612 61.5068 48.976 63.5308 48.976C65.2688 48.976 66.1928 48.14 66.5888 46.292H69.0308C68.5248 49.702 66.5448 51.198 63.5308 51.198C60.1428 51.198 57.8548 49.152 57.8548 44.378V42.442C57.8548 37.668 60.1428 35.622 63.5308 35.622C66.5448 35.622 68.5468 37.228 69.0528 40.528ZM79.8529 44.796V46.182C79.8529 49.108 78.4229 51.198 75.1889 51.198C72.1089 51.198 70.5029 49.218 70.5029 46.182V44.796C70.5029 41.562 72.2189 39.802 75.1889 39.802C78.1589 39.802 79.8529 41.562 79.8529 44.796ZM75.1889 49.174C76.8609 49.174 77.5209 47.832 77.5209 46.116V44.84C77.5209 42.926 76.7509 41.848 75.1889 41.848C73.6049 41.848 72.8349 42.948 72.8349 44.84V46.116C72.8349 47.832 73.4069 49.174 75.1889 49.174ZM42.62 57.82H45.084V73H42.818L36.636 62.682V73H34.172V57.82H36.372L42.62 68.27V57.82ZM51.2096 57.82V73H48.6576V57.82H51.2096ZM64.588 60.108L62.652 61.494C61.904 60.46 61.09 59.844 59.374 59.844C57.812 59.844 56.888 60.548 56.888 61.824C56.888 63.276 58.032 63.848 60.144 64.31C63.202 64.97 64.786 66.114 64.786 68.842C64.786 71.108 63.268 73.198 59.616 73.198C57.02 73.198 55.194 72.406 53.94 70.712L55.942 69.326C56.844 70.404 57.746 70.976 59.484 70.976C61.574 70.976 62.234 70.052 62.234 68.952C62.234 67.742 61.552 66.994 58.912 66.422C55.986 65.806 54.336 64.398 54.336 61.824C54.336 59.536 55.832 57.622 59.396 57.622C61.816 57.622 63.51 58.436 64.588 60.108ZM68.3579 73H65.6299L70.9099 57.82H73.3299L78.6099 73H75.9039L74.8699 69.854H69.3919L68.3579 73ZM72.1199 61.516L70.0959 67.654H74.1439L72.1199 61.516Z" fill="white"/>
<path d="M28.584 51H28.4536C28.4536 51.072 28.512 51.1304 28.584 51.1304V51ZM28.584 40V39.8696C28.512 39.8696 28.4536 39.928 28.4536 40H28.584ZM30.938 40H31.0684C31.0684 39.928 31.01 39.8696 30.938 39.8696V40ZM30.938 51V51.1304C31.01 51.1304 31.0684 51.072 31.0684 51H30.938ZM28.474 38.218H28.3436C28.3436 38.29 28.402 38.3484 28.474 38.3484V38.218ZM28.474 35.82V35.6896C28.402 35.6896 28.3436 35.748 28.3436 35.82H28.474ZM31.048 35.82H31.1784C31.1784 35.748 31.12 35.6896 31.048 35.6896V35.82ZM31.048 38.218V38.3484C31.12 38.3484 31.1784 38.29 31.1784 38.218H31.048ZM28.7144 51V40H28.4536V51H28.7144ZM28.584 40.1304H30.938V39.8696H28.584V40.1304ZM30.8076 40V51H31.0684V40H30.8076ZM30.938 50.8696H28.584V51.1304H30.938V50.8696ZM28.6044 38.218V35.82H28.3436V38.218H28.6044ZM28.474 35.9504H31.048V35.6896H28.474V35.9504ZM30.9176 35.82V38.218H31.1784V35.82H30.9176ZM31.048 38.0876H28.474V38.3484H31.048V38.0876ZM34.1935 51H34.0631C34.0631 51.072 34.1215 51.1304 34.1935 51.1304V51ZM34.1935 35.82V35.6896C34.1215 35.6896 34.0631 35.748 34.0631 35.82H34.1935ZM36.7455 38.042V37.9116C36.6735 37.9116 36.6151 37.97 36.6151 38.042H36.7455ZM36.7455 48.8H36.6151C36.6151 48.872 36.6735 48.9304 36.7455 48.9304V48.8ZM39.3195 50.8696H34.1935V51.1304H39.3195V50.8696ZM34.3239 51V35.82H34.0631V51H34.3239ZM34.1935 35.9504H39.3195V35.6896H34.1935V35.9504ZM39.3195 35.9504C41.002 35.9504 42.3865 36.4005 43.3521 37.43C44.3192 38.461 44.8871 40.0952 44.8871 42.508H45.1479C45.1479 40.0588 44.5717 38.349 43.5423 37.2515C42.5115 36.1525 41.0469 35.6896 39.3195 35.6896V35.9504ZM44.8871 42.508V44.312H45.1479V42.508H44.8871ZM44.8871 44.312C44.8871 46.7248 44.3192 48.359 43.3521 49.39C42.3865 50.4195 41.002 50.8696 39.3195 50.8696V51.1304C41.0469 51.1304 42.5115 50.6675 43.5423 49.5685C44.5717 48.471 45.1479 46.7612 45.1479 44.312H44.8871ZM39.3195 48.9304C40.4384 48.9304 41.2708 48.5778 41.8159 47.8025C42.3537 47.0375 42.5959 45.8822 42.5959 44.312H42.3351C42.3351 45.8658 42.0933 46.9545 41.6026 47.6525C41.1191 48.3402 40.3785 48.6696 39.3195 48.6696V48.9304ZM42.5959 44.312V42.508H42.3351V44.312H42.5959ZM42.5959 42.508C42.5959 40.9379 42.3537 39.7877 41.8156 39.0281C41.2703 38.2582 40.4377 37.9116 39.3195 37.9116V38.1724C40.3792 38.1724 41.1197 38.4968 41.6028 39.1789C42.0933 39.8713 42.3351 40.9541 42.3351 42.508H42.5959ZM39.3195 37.9116H36.7455V38.1724H39.3195V37.9116ZM36.6151 38.042V48.8H36.8759V38.042H36.6151ZM36.7455 48.9304H39.3195V48.6696H36.7455V48.9304ZM53.8661 48.096L53.9409 47.9892C53.9119 47.9689 53.8758 47.9612 53.841 47.968C53.8063 47.9749 53.7758 47.9955 53.7566 48.0253L53.8661 48.096ZM55.6261 49.328L55.7392 49.3929C55.7728 49.3344 55.7562 49.2599 55.7009 49.2212L55.6261 49.328ZM55.7801 46.072V46.2024C55.8521 46.2024 55.9105 46.144 55.9105 46.072H55.7801ZM49.2021 46.072V45.9416C49.1301 45.9416 49.0717 46 49.0717 46.072H49.2021ZM49.2241 44.268L49.0941 44.2584C49.0914 44.2946 49.1039 44.3302 49.1286 44.3568C49.1533 44.3833 49.1879 44.3984 49.2241 44.3984V44.268ZM53.4261 44.268V44.3984C53.4619 44.3984 53.4962 44.3837 53.5208 44.3576C53.5454 44.3316 53.5583 44.2966 53.5563 44.2609L53.4261 44.268ZM53.7914 48.2028L55.5514 49.4348L55.7009 49.2212L53.9409 47.9892L53.7914 48.2028ZM55.513 49.2631C55.1404 49.9125 54.6595 50.3604 54.0395 50.648C53.4167 50.9369 52.6455 51.0676 51.6881 51.0676V51.3284C52.6667 51.3284 53.4796 51.1951 54.1492 50.8845C54.8218 50.5726 55.3418 50.0855 55.7392 49.3929L55.513 49.2631ZM51.6881 51.0676C50.1446 51.0676 48.9774 50.5666 48.1951 49.7207C47.4114 48.8733 47.0005 47.6649 47.0005 46.226H46.7397C46.7397 47.7131 47.1648 48.9907 48.0036 49.8978C48.8439 50.8064 50.0856 51.3284 51.6881 51.3284V51.0676ZM47.0005 46.226V44.73H46.7397V46.226H47.0005ZM47.0005 44.73C47.0005 43.1325 47.3918 41.9368 48.1186 41.1412C48.8437 40.3476 49.9209 39.9324 51.3361 39.9324V39.6716C49.8693 39.6716 48.7135 40.1034 47.9261 40.9653C47.1405 41.8252 46.7397 43.0935 46.7397 44.73H47.0005ZM51.3361 39.9324C52.8164 39.9324 53.8864 40.3744 54.5893 41.1958C55.2955 42.0209 55.6497 43.2503 55.6497 44.862H55.9105C55.9105 43.2177 55.5498 41.9171 54.7874 41.0262C54.0219 40.1316 52.8699 39.6716 51.3361 39.6716V39.9324ZM55.6497 44.862V46.072H55.9105V44.862H55.6497ZM55.7801 45.9416H49.2021V46.2024H55.7801V45.9416ZM49.0717 46.072V46.116H49.3325V46.072H49.0717ZM49.0717 46.116C49.0717 46.9874 49.2388 47.7823 49.6423 48.3629C50.0511 48.951 50.6923 49.3044 51.6001 49.3044V49.0436C50.7699 49.0436 50.2122 48.726 49.8564 48.2141C49.4955 47.6947 49.3325 46.9606 49.3325 46.116H49.0717ZM51.6001 49.3044C52.2615 49.3044 52.7412 49.2037 53.1157 49.0061C53.4918 48.8077 53.7488 48.5184 53.9757 48.1667L53.7566 48.0253C53.5435 48.3556 53.3164 48.6053 52.994 48.7754C52.6701 48.9463 52.2368 49.0436 51.6001 49.0436V49.3044ZM51.3361 41.7176C50.6214 41.7176 50.0814 41.9615 49.7092 42.4142C49.3414 42.8614 49.1501 43.4969 49.0941 44.2584L49.3542 44.2776C49.4082 43.5431 49.5908 42.9686 49.9106 42.5798C50.2258 42.1965 50.6868 41.9784 51.3361 41.9784V41.7176ZM49.2241 44.3984H53.4261V44.1376H49.2241V44.3984ZM53.5563 44.2609C53.5116 43.4445 53.3208 42.8065 52.9507 42.3713C52.5763 41.9309 52.0352 41.7176 51.3361 41.7176V41.9784C51.9791 41.9784 52.439 42.1721 52.752 42.5402C53.0695 42.9135 53.2527 43.4855 53.2959 44.2751L53.5563 44.2609ZM69.0528 40.528V40.6584C69.0909 40.6584 69.127 40.6418 69.1518 40.6129C69.1765 40.5841 69.1875 40.5458 69.1817 40.5082L69.0528 40.528ZM66.5888 40.528L66.4613 40.5553C66.4742 40.6154 66.5273 40.6584 66.5888 40.6584V40.528ZM66.5888 46.292V46.1616C66.5273 46.1616 66.4742 46.2046 66.4613 46.2647L66.5888 46.292ZM69.0308 46.292L69.1598 46.3111C69.1654 46.2736 69.1543 46.2356 69.1296 46.2068C69.1048 46.1781 69.0688 46.1616 69.0308 46.1616V46.292ZM69.0528 40.3976H66.5888V40.6584H69.0528V40.3976ZM66.7163 40.5007C66.5148 39.5601 66.1583 38.8593 65.6239 38.3946C65.088 37.9286 64.3889 37.7136 63.5308 37.7136V37.9744C64.3447 37.9744 64.9767 38.1774 65.4528 38.5914C65.9303 39.0066 66.2669 39.6479 66.4613 40.5553L66.7163 40.5007ZM63.5308 37.7136C62.4873 37.7136 61.6617 38.0562 61.1037 38.838C60.5522 39.6106 60.2764 40.793 60.2764 42.442H60.5372C60.5372 40.813 60.8114 39.6964 61.316 38.9895C61.8139 38.2918 62.5504 37.9744 63.5308 37.9744V37.7136ZM60.2764 42.442V44.378H60.5372V42.442H60.2764ZM60.2764 44.378C60.2764 46.0054 60.5524 47.1873 61.1034 47.9651C61.6609 48.7519 62.4859 49.1064 63.5308 49.1064V48.8456C62.5517 48.8456 61.8148 48.5181 61.3162 47.8144C60.8113 47.1017 60.5372 45.9846 60.5372 44.378H60.2764ZM63.5308 49.1064C64.4209 49.1064 65.1209 48.8919 65.6494 48.4247C66.176 47.9592 66.5152 47.2579 66.7163 46.3193L66.4613 46.2647C66.2665 47.1741 65.9456 47.8148 65.4767 48.2293C65.0098 48.6421 64.3788 48.8456 63.5308 48.8456V49.1064ZM66.5888 46.4224H69.0308V46.1616H66.5888V46.4224ZM68.9019 46.2729C68.652 47.9564 68.0412 49.1504 67.1365 49.9247C66.2318 50.6991 65.0167 51.0676 63.5308 51.0676V51.3284C65.059 51.3284 66.3409 50.9489 67.3061 50.1228C68.2715 49.2966 68.9036 48.0376 69.1598 46.3111L68.9019 46.2729ZM63.5308 51.0676C61.8635 51.0676 60.4839 50.565 59.5193 49.4911C58.5528 48.4151 57.9852 46.7461 57.9852 44.378H57.7244C57.7244 46.7839 58.3009 48.5249 59.3253 49.6654C60.3517 50.808 61.8102 51.3284 63.5308 51.3284V51.0676ZM57.9852 44.378V42.442H57.7244V44.378H57.9852ZM57.9852 42.442C57.9852 40.0739 58.5528 38.4049 59.5193 37.3289C60.4839 36.255 61.8635 35.7524 63.5308 35.7524V35.4916C61.8102 35.4916 60.3517 36.012 59.3253 37.1546C58.3009 38.2951 57.7244 40.0361 57.7244 42.442H57.9852ZM63.5308 35.7524C65.0146 35.7524 66.2357 36.1473 67.147 36.9361C68.0584 37.7249 68.6744 38.9201 68.9239 40.5478L69.1817 40.5082C68.9253 38.8359 68.2872 37.5781 67.3177 36.7389C66.348 35.8997 65.0611 35.4916 63.5308 35.4916V35.7524ZM79.7225 44.796V46.182H79.9833V44.796H79.7225ZM79.7225 46.182C79.7225 47.6258 79.3696 48.8454 78.6347 49.7024C77.9027 50.556 76.7762 51.0676 75.1889 51.0676V51.3284C76.8357 51.3284 78.0412 50.795 78.8327 49.8721C79.6213 48.9526 79.9833 47.6642 79.9833 46.182H79.7225ZM75.1889 51.0676C73.6781 51.0676 72.5449 50.583 71.7879 49.7413C71.029 48.8975 70.6333 47.6783 70.6333 46.182H70.3726C70.3726 47.7217 70.7799 49.0105 71.594 49.9157C72.41 50.823 73.6198 51.3284 75.1889 51.3284V51.0676ZM70.6333 46.182V44.796H70.3726V46.182H70.6333ZM70.6333 44.796C70.6333 43.201 71.0563 41.9888 71.8268 41.1759C72.5964 40.3641 73.7298 39.9324 75.1889 39.9324V39.6716C73.678 39.6716 72.4685 40.1199 71.6376 40.9966C70.8076 41.8722 70.3726 43.157 70.3726 44.796H70.6333ZM75.1889 39.9324C76.648 39.9324 77.7757 40.364 78.5397 41.1756C79.3049 41.9884 79.7225 43.2006 79.7225 44.796H79.9833C79.9833 43.1574 79.554 41.8726 78.7296 40.9969C77.9041 40.12 76.6999 39.6716 75.1889 39.6716V39.9324ZM75.1889 49.3044C76.0657 49.3044 76.6902 48.9495 77.0898 48.3618C77.4843 47.7817 77.6513 46.9875 77.6513 46.116H77.3905C77.3905 46.9605 77.2276 47.6953 76.8741 48.2152C76.5257 48.7275 75.9842 49.0436 75.1889 49.0436V49.3044ZM77.6513 46.116V44.84H77.3905V46.116H77.6513ZM77.6513 44.84C77.6513 43.8687 77.4565 43.0879 77.0444 42.5472C76.6277 42.0005 76.003 41.7176 75.1889 41.7176V41.9784C75.9369 41.9784 76.4782 42.2345 76.837 42.7053C77.2004 43.1821 77.3905 43.8973 77.3905 44.84H77.6513ZM75.1889 41.7176C74.3637 41.7176 73.7336 42.0061 73.3143 42.5554C72.8995 43.0987 72.7045 43.8794 72.7045 44.84H72.9653C72.9653 43.9086 73.1553 43.1933 73.5216 42.7136C73.8833 42.2399 74.4302 41.9784 75.1889 41.9784V41.7176ZM72.7045 44.84V46.116H72.9653V44.84H72.7045ZM72.7045 46.116C72.7045 46.9844 72.8485 47.7794 73.2351 48.3607C73.6279 48.9514 74.2597 49.3044 75.1889 49.3044V49.0436C74.3361 49.0436 73.791 48.7256 73.4523 48.2163C73.1073 47.6976 72.9653 46.9636 72.9653 46.116H72.7045ZM42.62 57.82V57.6896C42.548 57.6896 42.4896 57.748 42.4896 57.82H42.62ZM45.084 57.82H45.2144C45.2144 57.748 45.156 57.6896 45.084 57.6896V57.82ZM45.084 73V73.1304C45.156 73.1304 45.2144 73.072 45.2144 73H45.084ZM42.818 73L42.7062 73.067C42.7297 73.1063 42.7722 73.1304 42.818 73.1304V73ZM36.636 62.682L36.7478 62.615C36.7177 62.5647 36.6577 62.5407 36.6012 62.5563C36.5447 62.572 36.5056 62.6234 36.5056 62.682H36.636ZM36.636 73V73.1304C36.708 73.1304 36.7664 73.072 36.7664 73H36.636ZM34.172 73H34.0416C34.0416 73.072 34.1 73.1304 34.172 73.1304V73ZM34.172 57.82V57.6896C34.1 57.6896 34.0416 57.748 34.0416 57.82H34.172ZM36.372 57.82L36.4839 57.7531C36.4604 57.7137 36.4179 57.6896 36.372 57.6896V57.82ZM42.62 68.27L42.5081 68.3369C42.5382 68.3872 42.5982 68.4113 42.6547 68.3957C42.7112 68.3801 42.7504 68.3286 42.7504 68.27H42.62ZM42.62 57.9504H45.084V57.6896H42.62V57.9504ZM44.9536 57.82V73H45.2144V57.82H44.9536ZM45.084 72.8696H42.818V73.1304H45.084V72.8696ZM42.9298 72.933L36.7478 62.615L36.5242 62.749L42.7062 73.067L42.9298 72.933ZM36.5056 62.682V73H36.7664V62.682H36.5056ZM36.636 72.8696H34.172V73.1304H36.636V72.8696ZM34.3024 73V57.82H34.0416V73H34.3024ZM34.172 57.9504H36.372V57.6896H34.172V57.9504ZM36.2601 57.8869L42.5081 68.3369L42.7319 68.2031L36.4839 57.7531L36.2601 57.8869ZM42.7504 68.27V57.82H42.4896V68.27H42.7504ZM51.2096 57.82H51.34C51.34 57.748 51.2816 57.6896 51.2096 57.6896V57.82ZM51.2096 73V73.1304C51.2816 73.1304 51.34 73.072 51.34 73H51.2096ZM48.6576 73H48.5272C48.5272 73.072 48.5856 73.1304 48.6576 73.1304V73ZM48.6576 57.82V57.6896C48.5856 57.6896 48.5272 57.748 48.5272 57.82H48.6576ZM51.0792 57.82V73H51.34V57.82H51.0792ZM51.2096 72.8696H48.6576V73.1304H51.2096V72.8696ZM48.788 73V57.82H48.5272V73H48.788ZM48.6576 57.9504H51.2096V57.6896H48.6576V57.9504ZM64.588 60.108L64.6639 60.214C64.7205 60.1735 64.7353 60.0958 64.6976 60.0373L64.588 60.108ZM62.652 61.494L62.5464 61.5704C62.5884 61.6286 62.6696 61.6418 62.7279 61.6L62.652 61.494ZM60.144 64.31L60.1162 64.4374L60.1165 64.4375L60.144 64.31ZM53.94 70.712L53.8658 70.6048C53.8368 70.6249 53.8172 70.6559 53.8114 70.6907C53.8056 70.7255 53.8142 70.7612 53.8352 70.7896L53.94 70.712ZM55.942 69.326L56.042 69.2423C55.9988 69.1906 55.9232 69.1804 55.8678 69.2188L55.942 69.326ZM58.912 66.422L58.9396 66.2946L58.9389 66.2944L58.912 66.422ZM64.5121 60.002L62.5761 61.388L62.7279 61.6L64.6639 60.214L64.5121 60.002ZM62.7577 61.4176C62.378 60.8927 61.9741 60.4634 61.4392 60.1672C60.9036 59.8706 60.248 59.7136 59.374 59.7136V59.9744C60.2161 59.9744 60.8254 60.1254 61.3129 60.3953C61.801 60.6656 62.1781 61.0613 62.5464 61.5704L62.7577 61.4176ZM59.374 59.7136C58.5757 59.7136 57.9218 59.8932 57.4646 60.253C57.003 60.6164 56.7576 61.1514 56.7576 61.824H57.0184C57.0184 61.2206 57.2351 60.7656 57.6259 60.458C58.0213 60.1468 58.6103 59.9744 59.374 59.9744V59.7136ZM56.7576 61.824C56.7576 62.2046 56.8328 62.5342 56.9845 62.821C57.1363 63.1077 57.3608 63.3446 57.6496 63.5453C58.2225 63.9435 59.0589 64.2061 60.1162 64.4374L60.1719 64.1826C59.1171 63.9519 58.3256 63.6975 57.7984 63.3312C57.5372 63.1496 57.3438 62.9424 57.215 62.699C57.0863 62.4558 57.0184 62.1694 57.0184 61.824H56.7576ZM60.1165 64.4375C61.6389 64.766 62.7716 65.211 63.5239 65.8969C64.2694 66.5765 64.6556 67.5062 64.6556 68.842H64.9164C64.9164 67.4498 64.5107 66.4435 63.6996 65.7041C62.8954 64.971 61.7072 64.514 60.1715 64.1825L60.1165 64.4375ZM64.6556 68.842C64.6556 69.9459 64.2863 70.9988 63.48 71.7759C62.674 72.5527 61.4171 73.0676 59.616 73.0676V73.3284C61.467 73.3284 62.7951 72.7983 63.661 71.9636C64.5267 71.1292 64.9164 70.0041 64.9164 68.842H64.6556ZM59.616 73.0676C57.0501 73.0676 55.2682 72.2871 54.0448 70.6344L53.8352 70.7896C55.1198 72.5249 56.99 73.3284 59.616 73.3284V73.0676ZM54.0142 70.8192L56.0162 69.4332L55.8678 69.2188L53.8658 70.6048L54.0142 70.8192ZM55.842 69.4097C56.2993 69.9562 56.7638 70.3831 57.3412 70.6719C57.9192 70.9609 58.6003 71.1064 59.484 71.1064V70.8456C58.6297 70.8456 57.9909 70.7051 57.4578 70.4386C56.9243 70.1719 56.4867 69.7738 56.042 69.2423L55.842 69.4097ZM59.484 71.1064C60.5456 71.1064 61.2689 70.8721 61.7281 70.4751C62.1905 70.0753 62.3644 69.5286 62.3644 68.952H62.1036C62.1036 69.4754 61.9476 69.9407 61.5575 70.2779C61.1641 70.6179 60.5125 70.8456 59.484 70.8456V71.1064ZM62.3644 68.952C62.3644 68.3165 62.1825 67.7864 61.6456 67.3469C61.1201 66.9166 60.2639 66.5815 58.9396 66.2946L58.8844 66.5494C60.2002 66.8345 61.005 67.1594 61.4804 67.5486C61.9446 67.9286 62.1036 68.3774 62.1036 68.952H62.3644ZM58.9389 66.2944C57.4884 65.989 56.3711 65.4905 55.6173 64.7634C54.8676 64.0402 54.4664 63.0801 54.4664 61.824H54.2056C54.2056 63.1419 54.6295 64.1728 55.4363 64.9511C56.239 65.7255 57.4096 66.239 58.8852 66.5496L58.9389 66.2944ZM54.4664 61.824C54.4664 60.7088 54.8304 59.6956 55.6185 58.9603C56.4072 58.2245 57.6368 57.7524 59.396 57.7524V57.4916C57.5913 57.4916 56.2908 57.9765 55.4406 58.7697C54.5897 59.5634 54.2056 60.6512 54.2056 61.824H54.4664ZM59.396 57.7524C61.7825 57.7524 63.4298 58.5522 64.4784 60.1787L64.6976 60.0373C63.5903 58.3198 61.8495 57.4916 59.396 57.4916V57.7524ZM68.3579 73V73.1304C68.4143 73.1304 68.4642 73.0942 68.4818 73.0407L68.3579 73ZM65.6299 73L65.5068 72.9572C65.4929 72.997 65.4992 73.0411 65.5237 73.0756C65.5481 73.11 65.5877 73.1304 65.6299 73.1304V73ZM70.9099 57.82V57.6896C70.8544 57.6896 70.805 57.7247 70.7868 57.7772L70.9099 57.82ZM73.3299 57.82L73.4531 57.7772C73.4349 57.7247 73.3854 57.6896 73.3299 57.6896V57.82ZM78.6099 73V73.1304C78.6521 73.1304 78.6917 73.11 78.7162 73.0756C78.7407 73.0411 78.747 72.997 78.7331 72.9572L78.6099 73ZM75.9039 73L75.7801 73.0407C75.7977 73.0942 75.8476 73.1304 75.9039 73.1304V73ZM74.8699 69.854L74.9938 69.8133C74.9762 69.7598 74.9263 69.7236 74.8699 69.7236V69.854ZM69.3919 69.854V69.7236C69.3356 69.7236 69.2857 69.7598 69.2681 69.8133L69.3919 69.854ZM72.1199 61.516L72.2438 61.4752C72.2261 61.4217 72.1762 61.3856 72.1199 61.3856C72.0637 61.3856 72.0137 61.4217 71.9961 61.4752L72.1199 61.516ZM70.0959 67.654L69.9721 67.6132C69.959 67.6529 69.9658 67.6965 69.9903 67.7304C70.0148 67.7643 70.0541 67.7844 70.0959 67.7844V67.654ZM74.1439 67.654V67.7844C74.1858 67.7844 74.2251 67.7643 74.2496 67.7304C74.2741 67.6965 74.2809 67.6529 74.2678 67.6132L74.1439 67.654ZM68.3579 72.8696H65.6299V73.1304H68.3579V72.8696ZM65.7531 73.0428L71.0331 57.8628L70.7868 57.7772L65.5068 72.9572L65.7531 73.0428ZM70.9099 57.9504H73.3299V57.6896H70.9099V57.9504ZM73.2068 57.8628L78.4868 73.0428L78.7331 72.9572L73.4531 57.7772L73.2068 57.8628ZM78.6099 72.8696H75.9039V73.1304H78.6099V72.8696ZM76.0278 72.9593L74.9938 69.8133L74.7461 69.8947L75.7801 73.0407L76.0278 72.9593ZM74.8699 69.7236H69.3919V69.9844H74.8699V69.7236ZM69.2681 69.8133L68.2341 72.9593L68.4818 73.0407L69.5158 69.8947L69.2681 69.8133ZM71.9961 61.4752L69.9721 67.6132L70.2198 67.6948L72.2438 61.5568L71.9961 61.4752ZM70.0959 67.7844H74.1439V67.5236H70.0959V67.7844ZM74.2678 67.6132L72.2438 61.4752L71.9961 61.5568L74.0201 67.6948L74.2678 67.6132Z" fill="white" mask="url(#path-4-outside-1_1388_395)"/>
</svg>
