<svg width="108" height="108" viewBox="0 0 108 108" fill="none" xmlns="http://www.w3.org/2000/svg">
<ellipse cx="53.6798" cy="53.5972" rx="53.6798" ry="53.5972" fill="#73CDAA"/>
<mask id="mask0_1432_48" style="mask-type:alpha" maskUnits="userSpaceOnUse" x="22" y="23" width="63" height="63">
<rect x="22" y="23" width="63" height="62.9031" fill="#D9D9D9"/>
</mask>
<g mask="url(#mask0_1432_48)">
<path d="M54 81.3C47.8896 79.7746 42.862 76.2552 38.9172 70.7419C34.9724 65.2286 33 59.1597 33 52.535V36.845L54 29L75 36.845V52.535C75 55.3098 74.6172 58.0229 73.8516 60.6742C73.0859 63.3255 71.9958 65.857 70.5813 68.2686L62.4437 60.3364C62.9833 59.5665 63.3807 58.7275 63.6359 57.8195C63.8911 56.9115 64.0187 55.9926 64.0187 55.0629C64.0187 52.2735 63.0416 49.9055 61.0875 47.9588C59.1333 46.012 56.7708 45.0386 54 45.0386C51.2292 45.0386 48.8667 46.012 46.9125 47.9588C44.9584 49.9055 43.9813 52.2735 43.9813 55.0629C43.9813 57.8231 44.9584 60.1693 46.9125 62.1015C48.8667 64.0337 51.2292 64.9998 54 64.9998C54.9479 64.9998 55.8776 64.8581 56.7891 64.5749C57.7005 64.2916 58.5646 63.9102 59.3812 63.4308L68.0656 71.886C66.1406 74.254 64.0224 76.2371 61.7109 77.8351C59.3995 79.4332 56.8292 80.5882 54 81.3ZM54 60.6415C52.4396 60.6415 51.1088 60.1003 50.0078 59.018C48.9068 57.9357 48.3562 56.6173 48.3562 55.0629C48.3562 53.4793 48.9068 52.1391 50.0078 51.0423C51.1088 49.9454 52.4396 49.397 54 49.397C55.5604 49.397 56.8912 49.9454 57.9922 51.0423C59.0932 52.1391 59.6438 53.4793 59.6438 55.0629C59.6438 56.6173 59.0932 57.9357 57.9922 59.018C56.8912 60.1003 55.5604 60.6415 54 60.6415Z" fill="white"/>
</g>
</svg>
