<svg width="108" height="108" viewBox="0 0 108 108" fill="none" xmlns="http://www.w3.org/2000/svg">
<ellipse cx="53.6798" cy="53.5972" rx="53.6798" ry="53.5972" fill="#73CDAA"/>
<path d="M65.3119 71.0246C66.67 70.4904 67.9861 69.8555 69.2494 69.1252V79.0743C69.2494 79.5956 69.042 80.0956 68.6728 80.4642C68.3035 80.8329 67.8028 81.04 67.2806 81.04C66.7585 81.04 66.2577 80.8329 65.8885 80.4642C65.5193 80.0956 65.3119 79.5956 65.3119 79.0743V71.0246ZM68.2059 49.296L54.4247 41.9565C53.9649 41.722 53.4313 41.6772 52.9387 41.8318C52.4462 41.9864 52.0342 42.328 51.7915 42.783C51.5488 43.238 51.4948 43.77 51.6412 44.2644C51.7876 44.7587 52.1226 45.1759 52.5741 45.426L64.0814 51.5541L68.265 49.3279L68.2059 49.296ZM83.9559 41.9565L54.4247 26.2306C54.1399 26.0792 53.8221 26 53.4994 26C53.1767 26 52.8589 26.0792 52.5741 26.2306L23.0428 41.9565C22.7278 42.1241 22.4644 42.374 22.2807 42.6796C22.097 42.9852 22 43.3348 22 43.6912C22 44.0476 22.097 44.3973 22.2807 44.7028C22.4644 45.0084 22.7278 45.2583 23.0428 45.426L29.8744 49.065V60.9626C29.8723 61.9281 30.2282 62.8603 30.8735 63.5794C34.0974 67.1644 41.3202 73.1771 53.4994 73.1771C57.5377 73.2104 61.5457 72.4801 65.3119 71.0246V52.2102L64.0814 51.5541L53.4994 57.1884L32.7857 46.1484L28.1517 43.6912L53.4994 30.194L78.847 43.6912L74.2254 46.1484H74.2106L68.265 49.3279C68.5644 49.5005 68.8129 49.7487 68.9857 50.0476C69.1585 50.3465 69.2495 50.6856 69.2494 51.0307V69.1252C71.8167 67.6455 74.1366 65.7743 76.1252 63.5794C76.7705 62.8603 77.1264 61.9281 77.1244 60.9626V49.065L83.9559 45.426C84.2709 45.2583 84.5344 45.0084 84.7181 44.7028C84.9017 44.3973 84.9988 44.0476 84.9988 43.6912C84.9988 43.3348 84.9017 42.9852 84.7181 42.6796C84.5344 42.374 84.2709 42.1241 83.9559 41.9565Z" fill="white"/>
</svg>
