<svg width="108" height="108" viewBox="0 0 108 108" fill="none" xmlns="http://www.w3.org/2000/svg">
<ellipse cx="53.6798" cy="53.5972" rx="53.6798" ry="53.5972" fill="#73CDAA"/>
<mask id="mask0_1432_64" style="mask-type:alpha" maskUnits="userSpaceOnUse" x="22" y="22" width="63" height="63">
<rect x="22" y="22" width="63" height="62.9031" fill="#D9D9D9"/>
</mask>
<g mask="url(#mask0_1432_64)">
<path d="M54.6035 34.8494C53.2449 34.8494 52.0807 34.3675 51.1109 33.4038C50.1411 32.44 49.6562 31.2815 49.6562 29.9281C49.6562 28.5748 50.14 27.4151 51.1075 26.4491C52.0749 25.483 53.2379 25 54.5965 25C55.9551 25 57.1193 25.4819 58.089 26.4456C59.0588 27.4094 59.5438 28.5679 59.5438 29.9212C59.5438 31.2745 59.06 32.4342 58.0925 33.4003C57.1251 34.3663 55.9621 34.8494 54.6035 34.8494ZM64.9688 57.686C64.6771 57.686 64.4219 57.5771 64.2031 57.3592C63.9844 57.1413 63.875 56.887 63.875 56.5965V54.7443C61.8625 54.0906 59.974 53.1064 58.2094 51.7916C56.4448 50.4769 55.0156 48.8608 53.9219 46.9432C53.4114 48.3378 53.014 49.9249 52.7296 51.7045C52.4453 53.4841 52.3468 55.1002 52.4343 56.553L57.9906 64.3976C58.1489 64.5839 58.2578 64.7889 58.3172 65.0125C58.3766 65.2361 58.4063 65.4597 58.4063 65.6833V79.0409C58.4063 79.6583 58.1959 80.1759 57.7752 80.5935C57.3544 81.0112 56.833 81.22 56.2111 81.22C55.5891 81.22 55.0703 81.0112 54.6547 80.5935C54.2391 80.1759 54.0312 79.6583 54.0312 79.0409V67.3175L48.7594 60.9547L48.1906 70.1067C48.1906 70.2494 48.0448 70.6416 47.7531 71.2834L41.5625 79.4768C41.1833 79.9707 40.7046 80.2612 40.1264 80.3484C39.5481 80.4356 39.006 80.2903 38.5 79.9126C38.0042 79.5349 37.7125 79.058 37.625 78.4819C37.5375 77.9059 37.6833 77.3659 38.0625 76.8619L43.575 69.5184L43.225 56.553C43.1667 54.5918 43.2833 52.5108 43.575 50.3099C43.8667 48.109 44.3188 46.1442 44.9313 44.4154L39.375 47.5751V53.3092C39.375 53.9463 39.1646 54.4719 38.7438 54.8859C38.3231 55.2999 37.8018 55.5069 37.1798 55.5069C36.5579 55.5069 36.0391 55.2981 35.6234 54.8804C35.2078 54.4628 35 53.9453 35 53.3279V46.2895C35 45.8953 35.0948 45.528 35.2844 45.1876C35.474 44.8472 35.7438 44.5826 36.0938 44.3937L46.1562 38.6845C47.0166 38.1906 47.8108 37.8166 48.5388 37.5624C49.2667 37.3081 49.9454 37.181 50.575 37.181C51.7129 37.181 52.7484 37.6422 53.6815 38.5647C54.6147 39.4872 55.5698 40.9363 56.5469 42.912C57.5969 45.0329 58.8802 46.7181 60.3968 47.9674C61.9135 49.2167 63.6927 50.19 65.7344 50.8873C66.099 50.6549 66.4344 50.4951 66.7406 50.408C67.0469 50.3208 67.3823 50.2772 67.7469 50.2772C68.7823 50.2772 69.7083 50.6767 70.525 51.4757C71.3417 52.2747 71.75 53.1827 71.75 54.1996V80.1304C71.75 80.421 71.6406 80.6752 71.4219 80.8931C71.2031 81.111 70.9479 81.22 70.6562 81.22C70.3646 81.22 70.1094 81.111 69.8906 80.8931C69.6719 80.6752 69.5625 80.421 69.5625 80.1304V54.1996C69.5625 53.7347 69.3875 53.3279 69.0375 52.9793C68.6875 52.6306 68.2792 52.4563 67.8125 52.4563C67.3458 52.4563 66.9375 52.6306 66.5875 52.9793C66.2375 53.3279 66.0625 53.7347 66.0625 54.1996V56.5965C66.0625 56.887 65.9531 57.1413 65.7344 57.3592C65.5156 57.5771 65.2604 57.686 64.9688 57.686Z" fill="white"/>
</g>
</svg>
